<mxfile host="app.diagrams.net" modified="2021-07-10T14:38:02.913Z" agent="5.0 (Macintosh; Intel Mac OS X 10_15_7) AppleWebKit/605.1.15 (KHTML, like Gecko) Version/14.1.1 Safari/605.1.15" etag="LeffuNxw1r14MjNxHYiD" version="14.8.5" type="github">
  <diagram id="DHOlpiBnvQbLAL_IYYMT" name="Page-1">
    <mxGraphModel dx="3546" dy="1290" grid="1" gridSize="10" guides="1" tooltips="1" connect="1" arrows="1" fold="1" page="1" pageScale="1" pageWidth="827" pageHeight="1169" math="0" shadow="0">
      <root>
        <mxCell id="0" />
        <mxCell id="1" parent="0" />
        <mxCell id="9cZKCPdm0zYJeW4WKNwH-40" value="Adaptive Touch Point" style="rounded=0;whiteSpace=wrap;html=1;" vertex="1" parent="1">
          <mxGeometry x="-1180" y="120" width="120" height="60" as="geometry" />
        </mxCell>
        <mxCell id="9cZKCPdm0zYJeW4WKNwH-41" value="Queue Enabled" style="rounded=0;whiteSpace=wrap;html=1;" vertex="1" parent="1">
          <mxGeometry x="-1180" y="250" width="120" height="60" as="geometry" />
        </mxCell>
        <mxCell id="9cZKCPdm0zYJeW4WKNwH-42" value="Session Exists ?" style="rhombus;whiteSpace=wrap;html=1;" vertex="1" parent="1">
          <mxGeometry x="-1160" y="375" width="80" height="80" as="geometry" />
        </mxCell>
        <mxCell id="9cZKCPdm0zYJeW4WKNwH-43" value="getJwt, notifyLogin, BootsLogonForm&lt;br&gt;(In Invisible webview)" style="rounded=0;whiteSpace=wrap;html=1;" vertex="1" parent="1">
          <mxGeometry x="-1410" y="535" width="120" height="60" as="geometry" />
        </mxCell>
        <mxCell id="9cZKCPdm0zYJeW4WKNwH-44" value="queuePage MessageHandler&lt;br&gt;callback" style="rounded=0;whiteSpace=wrap;html=1;" vertex="1" parent="1">
          <mxGeometry x="-1410" y="670" width="120" height="60" as="geometry" />
        </mxCell>
        <mxCell id="9cZKCPdm0zYJeW4WKNwH-45" value="load the adaptive page&lt;br&gt;(In Visible webview)" style="rounded=0;whiteSpace=wrap;html=1;" vertex="1" parent="1">
          <mxGeometry x="-1410" y="800" width="120" height="60" as="geometry" />
        </mxCell>
        <mxCell id="9cZKCPdm0zYJeW4WKNwH-46" value="Virtual Queue page displayed" style="rounded=0;whiteSpace=wrap;html=1;" vertex="1" parent="1">
          <mxGeometry x="-1410" y="920" width="120" height="60" as="geometry" />
        </mxCell>
        <mxCell id="9cZKCPdm0zYJeW4WKNwH-47" value="Queue Disabled&lt;br&gt;Redirection occurs" style="rounded=0;whiteSpace=wrap;html=1;" vertex="1" parent="1">
          <mxGeometry x="-1410" y="1030" width="120" height="60" as="geometry" />
        </mxCell>
        <mxCell id="9cZKCPdm0zYJeW4WKNwH-48" value="load adaptive page without session renewal&lt;br&gt;(In Visible webview)" style="rounded=0;whiteSpace=wrap;html=1;" vertex="1" parent="1">
          <mxGeometry x="-1410" y="1160" width="120" height="60" as="geometry" />
        </mxCell>
        <mxCell id="9cZKCPdm0zYJeW4WKNwH-50" value="queuePage MessageHandler&lt;br&gt;callback" style="rounded=0;whiteSpace=wrap;html=1;" vertex="1" parent="1">
          <mxGeometry x="-970" y="655" width="120" height="60" as="geometry" />
        </mxCell>
        <mxCell id="9cZKCPdm0zYJeW4WKNwH-51" value="load the adaptive page&lt;br&gt;(In Visible webview)" style="rounded=0;whiteSpace=wrap;html=1;" vertex="1" parent="1">
          <mxGeometry x="-970" y="785" width="120" height="60" as="geometry" />
        </mxCell>
        <mxCell id="9cZKCPdm0zYJeW4WKNwH-52" value="Virtual Queue page displayed" style="rounded=0;whiteSpace=wrap;html=1;" vertex="1" parent="1">
          <mxGeometry x="-970" y="905" width="120" height="60" as="geometry" />
        </mxCell>
        <mxCell id="9cZKCPdm0zYJeW4WKNwH-53" value="Queue Disabled&lt;br&gt;Redirection occurs" style="rounded=0;whiteSpace=wrap;html=1;" vertex="1" parent="1">
          <mxGeometry x="-970" y="1015" width="120" height="60" as="geometry" />
        </mxCell>
        <mxCell id="9cZKCPdm0zYJeW4WKNwH-54" value="load adaptive page&amp;nbsp;&lt;br&gt;(In Visible webview)" style="rounded=0;whiteSpace=wrap;html=1;" vertex="1" parent="1">
          <mxGeometry x="-970" y="1150" width="120" height="60" as="geometry" />
        </mxCell>
        <mxCell id="9cZKCPdm0zYJeW4WKNwH-55" value="" style="edgeStyle=elbowEdgeStyle;elbow=horizontal;endArrow=classic;html=1;exitX=0;exitY=0.5;exitDx=0;exitDy=0;" edge="1" parent="1" source="9cZKCPdm0zYJeW4WKNwH-42">
          <mxGeometry width="50" height="50" relative="1" as="geometry">
            <mxPoint x="-1400" y="585" as="sourcePoint" />
            <mxPoint x="-1350" y="535" as="targetPoint" />
            <Array as="points">
              <mxPoint x="-1350" y="450" />
            </Array>
          </mxGeometry>
        </mxCell>
        <mxCell id="9cZKCPdm0zYJeW4WKNwH-56" value="" style="endArrow=classic;html=1;entryX=0.5;entryY=0;entryDx=0;entryDy=0;exitX=0.5;exitY=1;exitDx=0;exitDy=0;" edge="1" parent="1" source="9cZKCPdm0zYJeW4WKNwH-41" target="9cZKCPdm0zYJeW4WKNwH-42">
          <mxGeometry width="50" height="50" relative="1" as="geometry">
            <mxPoint x="-910" y="840" as="sourcePoint" />
            <mxPoint x="-860" y="790" as="targetPoint" />
          </mxGeometry>
        </mxCell>
        <mxCell id="9cZKCPdm0zYJeW4WKNwH-60" value="" style="endArrow=classic;html=1;exitX=0.5;exitY=1;exitDx=0;exitDy=0;entryX=0.5;entryY=0;entryDx=0;entryDy=0;" edge="1" parent="1" source="9cZKCPdm0zYJeW4WKNwH-40" target="9cZKCPdm0zYJeW4WKNwH-41">
          <mxGeometry width="50" height="50" relative="1" as="geometry">
            <mxPoint x="-910" y="580" as="sourcePoint" />
            <mxPoint x="-860" y="530" as="targetPoint" />
          </mxGeometry>
        </mxCell>
        <mxCell id="9cZKCPdm0zYJeW4WKNwH-61" value="" style="edgeStyle=elbowEdgeStyle;elbow=horizontal;endArrow=classic;html=1;exitX=1;exitY=0.5;exitDx=0;exitDy=0;entryX=0.5;entryY=0;entryDx=0;entryDy=0;" edge="1" parent="1" source="9cZKCPdm0zYJeW4WKNwH-42" target="9cZKCPdm0zYJeW4WKNwH-50">
          <mxGeometry width="50" height="50" relative="1" as="geometry">
            <mxPoint x="-850" y="580" as="sourcePoint" />
            <mxPoint x="-800" y="530" as="targetPoint" />
            <Array as="points">
              <mxPoint x="-910" y="520" />
            </Array>
          </mxGeometry>
        </mxCell>
        <mxCell id="9cZKCPdm0zYJeW4WKNwH-62" value="" style="endArrow=classic;html=1;exitX=0.5;exitY=1;exitDx=0;exitDy=0;entryX=0.5;entryY=0;entryDx=0;entryDy=0;" edge="1" parent="1" source="9cZKCPdm0zYJeW4WKNwH-43" target="9cZKCPdm0zYJeW4WKNwH-44">
          <mxGeometry width="50" height="50" relative="1" as="geometry">
            <mxPoint x="-850" y="870" as="sourcePoint" />
            <mxPoint x="-800" y="820" as="targetPoint" />
          </mxGeometry>
        </mxCell>
        <mxCell id="9cZKCPdm0zYJeW4WKNwH-64" value="" style="endArrow=classic;html=1;exitX=0.5;exitY=1;exitDx=0;exitDy=0;entryX=0.5;entryY=0;entryDx=0;entryDy=0;" edge="1" parent="1" source="9cZKCPdm0zYJeW4WKNwH-44" target="9cZKCPdm0zYJeW4WKNwH-45">
          <mxGeometry width="50" height="50" relative="1" as="geometry">
            <mxPoint x="-850" y="870" as="sourcePoint" />
            <mxPoint x="-800" y="820" as="targetPoint" />
          </mxGeometry>
        </mxCell>
        <mxCell id="9cZKCPdm0zYJeW4WKNwH-65" value="" style="endArrow=classic;html=1;exitX=0.5;exitY=1;exitDx=0;exitDy=0;entryX=0.5;entryY=0;entryDx=0;entryDy=0;" edge="1" parent="1" source="9cZKCPdm0zYJeW4WKNwH-50" target="9cZKCPdm0zYJeW4WKNwH-51">
          <mxGeometry width="50" height="50" relative="1" as="geometry">
            <mxPoint x="-850" y="870" as="sourcePoint" />
            <mxPoint x="-800" y="820" as="targetPoint" />
          </mxGeometry>
        </mxCell>
        <mxCell id="9cZKCPdm0zYJeW4WKNwH-66" value="" style="endArrow=classic;html=1;exitX=0.5;exitY=1;exitDx=0;exitDy=0;entryX=0.5;entryY=0;entryDx=0;entryDy=0;" edge="1" parent="1" source="9cZKCPdm0zYJeW4WKNwH-51" target="9cZKCPdm0zYJeW4WKNwH-52">
          <mxGeometry width="50" height="50" relative="1" as="geometry">
            <mxPoint x="-850" y="870" as="sourcePoint" />
            <mxPoint x="-800" y="820" as="targetPoint" />
          </mxGeometry>
        </mxCell>
        <mxCell id="9cZKCPdm0zYJeW4WKNwH-67" value="" style="endArrow=classic;html=1;exitX=0.5;exitY=1;exitDx=0;exitDy=0;entryX=0.5;entryY=0;entryDx=0;entryDy=0;" edge="1" parent="1" source="9cZKCPdm0zYJeW4WKNwH-45" target="9cZKCPdm0zYJeW4WKNwH-46">
          <mxGeometry width="50" height="50" relative="1" as="geometry">
            <mxPoint x="-850" y="870" as="sourcePoint" />
            <mxPoint x="-800" y="820" as="targetPoint" />
          </mxGeometry>
        </mxCell>
        <mxCell id="9cZKCPdm0zYJeW4WKNwH-68" value="" style="endArrow=classic;html=1;exitX=0.5;exitY=1;exitDx=0;exitDy=0;entryX=0.5;entryY=0;entryDx=0;entryDy=0;" edge="1" parent="1" source="9cZKCPdm0zYJeW4WKNwH-52" target="9cZKCPdm0zYJeW4WKNwH-53">
          <mxGeometry width="50" height="50" relative="1" as="geometry">
            <mxPoint x="-840" y="1110" as="sourcePoint" />
            <mxPoint x="-790" y="1060" as="targetPoint" />
          </mxGeometry>
        </mxCell>
        <mxCell id="9cZKCPdm0zYJeW4WKNwH-69" value="" style="endArrow=classic;html=1;exitX=0.5;exitY=1;exitDx=0;exitDy=0;entryX=0.5;entryY=0;entryDx=0;entryDy=0;" edge="1" parent="1" source="9cZKCPdm0zYJeW4WKNwH-46" target="9cZKCPdm0zYJeW4WKNwH-47">
          <mxGeometry width="50" height="50" relative="1" as="geometry">
            <mxPoint x="-840" y="1110" as="sourcePoint" />
            <mxPoint x="-790" y="1060" as="targetPoint" />
          </mxGeometry>
        </mxCell>
        <mxCell id="9cZKCPdm0zYJeW4WKNwH-70" value="" style="endArrow=classic;html=1;exitX=0.5;exitY=1;exitDx=0;exitDy=0;entryX=0.5;entryY=0;entryDx=0;entryDy=0;" edge="1" parent="1" source="9cZKCPdm0zYJeW4WKNwH-53" target="9cZKCPdm0zYJeW4WKNwH-54">
          <mxGeometry width="50" height="50" relative="1" as="geometry">
            <mxPoint x="-840" y="1110" as="sourcePoint" />
            <mxPoint x="-790" y="1060" as="targetPoint" />
          </mxGeometry>
        </mxCell>
        <mxCell id="9cZKCPdm0zYJeW4WKNwH-71" value="" style="endArrow=classic;html=1;exitX=0.5;exitY=1;exitDx=0;exitDy=0;entryX=0.5;entryY=0;entryDx=0;entryDy=0;" edge="1" parent="1" source="9cZKCPdm0zYJeW4WKNwH-47" target="9cZKCPdm0zYJeW4WKNwH-48">
          <mxGeometry width="50" height="50" relative="1" as="geometry">
            <mxPoint x="-840" y="1110" as="sourcePoint" />
            <mxPoint x="-790" y="1060" as="targetPoint" />
          </mxGeometry>
        </mxCell>
        <mxCell id="9cZKCPdm0zYJeW4WKNwH-72" value="NO" style="text;html=1;strokeColor=none;fillColor=none;align=center;verticalAlign=middle;whiteSpace=wrap;rounded=0;" vertex="1" parent="1">
          <mxGeometry x="-1280" y="385" width="40" height="20" as="geometry" />
        </mxCell>
        <mxCell id="9cZKCPdm0zYJeW4WKNwH-73" value="YES" style="text;html=1;strokeColor=none;fillColor=none;align=center;verticalAlign=middle;whiteSpace=wrap;rounded=0;" vertex="1" parent="1">
          <mxGeometry x="-1040" y="385" width="40" height="20" as="geometry" />
        </mxCell>
      </root>
    </mxGraphModel>
  </diagram>
</mxfile>
